<svg id="Layer_1" data-name="Layer 1" xmlns="http://www.w3.org/2000/svg" viewBox="0 0 172.81 68.45"><defs><style>.cls-1{isolation:isolate;}.cls-2{fill:#feb103;}</style></defs><g id="Group_229" data-name="Group 229"><g id="GARAЖ"><g class="cls-1"><g class="cls-1"><path class="cls-2" d="M34.64,36.72c0,9.84-6.85,15.82-15.87,15.82-10.12,0-17.39-7.45-17.39-16.7A16.71,16.71,0,0,1,18.26,19.05a16.48,16.48,0,0,1,14.08,7.36L26.08,30a9.21,9.21,0,0,0-7.86-3.77,9.26,9.26,0,0,0-9.48,9.66c0,5.48,3.87,9.48,10.12,9.48,4.28,0,7.09-1.89,8.24-5H18.49V34H34.64Z" transform="translate(-0.42 -2.25)"/></g><g class="cls-1"><path class="cls-2" d="M57.87,46.84h-12L44.3,51.9h-8l11-32.2h9.38l11,32.2H59.48Zm-2.21-6.9L51.89,28.11,48.12,39.94Z" transform="translate(-0.42 -2.25)"/><path class="cls-2" d="M82.53,41.32H79V51.9H71.67V19.7H84.55a11,11,0,0,1,11,11,10.63,10.63,0,0,1-5.93,9.34L96.51,51.9H88.6ZM79,34.88h5.52a3.9,3.9,0,0,0,3.68-4.14,3.89,3.89,0,0,0-3.68-4.14H79Z" transform="translate(-0.42 -2.25)"/><path class="cls-2" d="M120.2,46.84h-12l-1.61,5.06h-8l11-32.2h9.38l11,32.2h-8.05ZM118,39.94l-3.77-11.83-3.77,11.83Z" transform="translate(-0.42 -2.25)"/></g></g><g class="cls-1"><path class="cls-2" d="M165.05,51.9l-8.92-14.26V51.9h-7.36V37.64L139.84,51.9H131.7l10.4-16.38L132.16,19.7h8.14l8.47,14.17V19.7h7.36V33.87l8.46-14.17h8.15L162.8,35.52,173.2,51.9Z" transform="translate(-0.42 -2.25)"/></g></g><g id="сайты"><g class="cls-1"><g class="cls-1"><path class="cls-2" d="M.42,8.4A3.63,3.63,0,0,1,4.13,4.7,3.61,3.61,0,0,1,7.3,6.49L5.46,7.56A1.46,1.46,0,0,0,4.1,6.77,1.54,1.54,0,0,0,2.52,8.4,1.54,1.54,0,0,0,4.1,10a1.43,1.43,0,0,0,1.36-.78l1.84,1A3.59,3.59,0,0,1,4.13,12.1,3.63,3.63,0,0,1,.42,8.4Z" transform="translate(-0.42 -2.25)"/></g><g class="cls-1"><path class="cls-2" d="M15.6,4.9v7H13.5v-.66a2.66,2.66,0,0,1-2.09.86A3.52,3.52,0,0,1,8.06,8.4a3.52,3.52,0,0,1,3.35-3.7,2.65,2.65,0,0,1,2.09.85V4.9ZM13.5,8.4a1.61,1.61,0,0,0-1.67-1.71A1.6,1.6,0,0,0,10.16,8.4a1.6,1.6,0,0,0,1.67,1.71A1.61,1.61,0,0,0,13.5,8.4Z" transform="translate(-0.42 -2.25)"/><path class="cls-2" d="M24.14,4.9v7H22.09V8.4l-3,3.5H17.55v-7H19.6V8.4l3-3.5Zm-5.4-2.65h4.2V4.07h-4.2Z" transform="translate(-0.42 -2.25)"/><path class="cls-2" d="M31.77,6.91H29.68v5h-2.1v-5H25.46v-2h6.31Z" transform="translate(-0.42 -2.25)"/><path class="cls-2" d="M39.12,9.45a2.45,2.45,0,0,1-2.75,2.45H33.09v-7h2.1V7h1.18A2.45,2.45,0,0,1,39.12,9.45Zm-2,0a.63.63,0,0,0-.69-.63H35.19v1.26h1.19A.63.63,0,0,0,37.07,9.45ZM41.92,4.9v7h-2.1v-7Z" transform="translate(-0.42 -2.25)"/></g></g></g><g id="приложения"><g class="cls-1"><g class="cls-1"><path class="cls-2" d="M95.35,67.9h-2.1v-5H90.87v5h-2.1v-7h6.58Z" transform="translate(-0.42 -2.25)"/><path class="cls-2" d="M104.85,64.4a3.52,3.52,0,0,1-3.35,3.7,2.64,2.64,0,0,1-2.09-.86V70.7h-2.1V60.9h2.1v.65a2.64,2.64,0,0,1,2.09-.85A3.52,3.52,0,0,1,104.85,64.4Zm-2.1,0a1.67,1.67,0,1,0-1.67,1.71A1.61,1.61,0,0,0,102.75,64.4Z" transform="translate(-0.42 -2.25)"/><path class="cls-2" d="M113,60.9v7H111V64.4l-3,3.5h-1.54v-7h2v3.5l3-3.5Z" transform="translate(-0.42 -2.25)"/><path class="cls-2" d="M121.08,67.9H119v-5h-1.51V65c0,2.12-1.06,3.14-3.11,2.9v-2c.66.2,1-.21,1-1.08v-4h5.71Z" transform="translate(-0.42 -2.25)"/></g><g class="cls-1"><path class="cls-2" d="M122.69,64.4a3.71,3.71,0,1,1,3.71,3.7A3.67,3.67,0,0,1,122.69,64.4Zm5.32,0a1.61,1.61,0,1,0-1.61,1.65A1.57,1.57,0,0,0,128,64.4Z" transform="translate(-0.42 -2.25)"/><path class="cls-2" d="M138.15,67.9l-1.9-3v3H134.2v-3l-1.91,3H130l2.32-3.5-2.18-3.5h2.33l1.76,3v-3h2.05v3l1.76-3h2.33l-2.19,3.5,2.33,3.5Z" transform="translate(-0.42 -2.25)"/></g><g class="cls-1"><path class="cls-2" d="M145.36,66.22a1.82,1.82,0,0,0,1.34-.53l1.68,1a3.53,3.53,0,0,1-3,1.45,3.7,3.7,0,1,1-.15-7.4,3.53,3.53,0,0,1,3.55,3.7,3.86,3.86,0,0,1-.08.84h-5A1.59,1.59,0,0,0,145.36,66.22Zm1.29-2.55a1.46,1.46,0,0,0-1.49-1.11,1.44,1.44,0,0,0-1.52,1.11Z" transform="translate(-0.42 -2.25)"/><path class="cls-2" d="M156.92,60.9v7h-2.1V65.38h-2.38V67.9h-2.1v-7h2.1v2.52h2.38V60.9Z" transform="translate(-0.42 -2.25)"/><path class="cls-2" d="M165.46,60.9v7h-2V64.4l-3,3.5h-1.54v-7h2v3.5l3-3.5Z" transform="translate(-0.42 -2.25)"/><path class="cls-2" d="M173.23,67.9h-2v-2h-.44l-1.44,2h-2.38l1.64-2.31a2.48,2.48,0,0,1,1.25-4.69h3.41Zm-4-4.44a.67.67,0,0,0,.75.69h1.19v-1.4H170A.68.68,0,0,0,169.25,63.46Z" transform="translate(-0.42 -2.25)"/></g></g></g></g></svg>