<svg id="Layer_1" data-name="Layer 1" xmlns="http://www.w3.org/2000/svg" viewBox="0 0 61.94 61.94"><defs><style>.cls-1{fill:#feb103;}</style></defs><g id="surface1"><path id="Path_107" data-name="Path 107" class="cls-1" d="M127.22,129.58a1,1,0,0,1,.51.29l15.76,15.76,2.86-2.85L130.58,127a1,1,0,0,1-.29-.51l-1-4-6.57-3.76L119.49,122l3.77,6.59Z" transform="translate(-119.07 -118.51)"/><path id="Path_108" data-name="Path 108" class="cls-1" d="M141.23,165.55l25-25a1.12,1.12,0,0,1,1.05-.29,11,11,0,0,0,13.35-7.91,11.27,11.27,0,0,0,.35-2.78c0-.2,0-.41,0-.62l-5.82,5.82A1.1,1.1,0,0,1,174,135l-6.62-2.2a1.09,1.09,0,0,1-.7-.7l-2.21-6.62a1.1,1.1,0,0,1,.27-1.13l5.82-5.82A11,11,0,0,0,159,128.81a11.13,11.13,0,0,0,.32,3.4,1.14,1.14,0,0,1-.29,1l-25,25a1.13,1.13,0,0,1-1.05.29,10.92,10.92,0,0,0-2.67-.34,11.14,11.14,0,1,0,10.69,8.37A1.12,1.12,0,0,1,141.23,165.55Zm-8.3,8.13h-5.36l-2.65-4.42,2.65-4.41h5.37l2.65,4.41Zm4.27-12.92,24.27-24.27,1.56,1.56-24.27,24.27Z" transform="translate(-119.07 -118.51)"/><path id="Path_109" data-name="Path 109" class="cls-1" d="M172,179.87a6.69,6.69,0,0,0,8.61-8.62Z" transform="translate(-119.07 -118.51)"/><path id="Path_110" data-name="Path 110" class="cls-1" d="M179,168.86l-12.39-12.4a3.44,3.44,0,0,1-4.85-4.85L160,149.86l-9.47,9.47,1.76,1.76a3.45,3.45,0,0,1,4.86,4.86l12.38,12.38c.13.14.28.26.42.39l9.43-9.44C179.3,169.14,179.18,169,179,168.86Zm-6.54,4.49-11-11,1.56-1.56,11,11Z" transform="translate(-119.07 -118.51)"/></g></svg>