<svg id="Layer_1" data-name="Layer 1" xmlns="http://www.w3.org/2000/svg" viewBox="0 0 44.04 62"><defs><style>.cls-1{fill:#feb103;}</style></defs><g id="surface1"><path id="Path_116" data-name="Path 116" class="cls-1" d="M138.85,147.45h2.32l-6.75-22.75-2.13.63Z" transform="translate(-128.05 -118.66)"/><path id="Path_117" data-name="Path 117" class="cls-1" d="M166.46,123.31a2.21,2.21,0,0,0-4.18-1.43l-.36,1.05,4.19,1.43Z" transform="translate(-128.05 -118.66)"/><path id="Path_118" data-name="Path 118" class="cls-1" d="M150.44,145.23H146V143h4.43V140.8h-2.22v-2.21h2.22v-2.21H146v-2.22h4.43V132h-2.22v-2.22h2.22v-2.21H146V125.3h4.43v-2.21h-2.22v-2.21h2.22v-2.22h-6.65v28.79h6.65Z" transform="translate(-128.05 -118.66)"/><path id="Path_119" data-name="Path 119" class="cls-1" d="M155.82,140.74,161.19,125l4.19,1.43L160,142.17Z" transform="translate(-128.05 -118.66)"/><path id="Path_120" data-name="Path 120" class="cls-1" d="M159.29,144.26l-4.19-1.43-1.58,4.62h4.68Z" transform="translate(-128.05 -118.66)"/><path id="Path_121" data-name="Path 121" class="cls-1" d="M129.85,121l-1.28,3.15,4.07-1.21Z" transform="translate(-128.05 -118.66)"/><path id="Path_122" data-name="Path 122" class="cls-1" d="M131.62,149.66h31v31h-31Z" transform="translate(-128.05 -118.66)"/><path id="Path_123" data-name="Path 123" class="cls-1" d="M136.55,147.45,130.17,126l-2.12.63,6.19,20.86Z" transform="translate(-128.05 -118.66)"/><path id="Path_124" data-name="Path 124" class="cls-1" d="M172,126.71a1.14,1.14,0,0,0-.64-.56l-3-1-.71,2.1,2,.67-5.74,16.76,2.1.72L172,127.56A1.19,1.19,0,0,0,172,126.71Z" transform="translate(-128.05 -118.66)"/></g></svg>