<svg id="Layer_1" data-name="Layer 1" xmlns="http://www.w3.org/2000/svg" viewBox="0 0 103.3 3012.69"><defs><style>.cls-1,.cls-3{fill:#fff;}.cls-2,.cls-3{isolation:isolate;}.cls-3{font-size:16px;font-family:Gilroy-ExtraBold, Gilroy;font-weight:800;letter-spacing:0.01em;}.cls-4{letter-spacing:0em;}.cls-5{letter-spacing:-0.02em;}.cls-6{fill:#feb103;}.cls-7{fill:#184757;}</style></defs><rect class="cls-1" x="34" y="1819.86" width="1" height="162"/><g id="Scroll" class="cls-2"><text class="cls-3" transform="translate(29 1732.36) rotate(90)">S<tspan class="cls-4" x="9.6" y="0">c</tspan><tspan class="cls-5" x="18.1" y="0">r</tspan><tspan class="cls-4" x="23.78" y="0">oll</tspan></text></g><path class="cls-6" d="M523.34-661.48,619-565.84v-88.31a4.43,4.43,0,0,1-3.18-1.31l-97.07-97.07a4.51,4.51,0,0,0-1.75,1.07,4.47,4.47,0,0,0-1.31,3.16v80.85a4.52,4.52,0,0,0,1.31,3.18l1.75,1.74A4.49,4.49,0,0,1,523.34-661.48Z" transform="translate(-515.67 1014.15)"/><path class="cls-6" d="M523.34-481.48,619-385.84v-88.31a4.43,4.43,0,0,1-3.18-1.31l-97.07-97.07a4.51,4.51,0,0,0-1.75,1.07,4.47,4.47,0,0,0-1.31,3.16v80.85a4.52,4.52,0,0,0,1.31,3.18l1.75,1.74A4.49,4.49,0,0,1,523.34-481.48Z" transform="translate(-515.67 1014.15)"/><path class="cls-6" d="M523.34-302.48,619-206.84v-87.31a4.43,4.43,0,0,1-3.18-1.31L518-393.22a4.75,4.75,0,0,0-1,.76,4.47,4.47,0,0,0-1.31,3.16v80.85a4.52,4.52,0,0,0,1.31,3.18l1.75,1.74A4.49,4.49,0,0,1,523.34-302.48Z" transform="translate(-515.67 1014.15)"/><path class="cls-6" d="M523.34-122.48,619-26.84v-88.31a4.43,4.43,0,0,1-3.18-1.31l-97.07-97.07a4.51,4.51,0,0,0-1.75,1.07,4.47,4.47,0,0,0-1.31,3.16v80.85a4.52,4.52,0,0,0,1.31,3.18l1.75,1.74A4.49,4.49,0,0,1,523.34-122.48Z" transform="translate(-515.67 1014.15)"/><path class="cls-6" d="M523.34,57.52,619,153.16V64.85a4.43,4.43,0,0,1-3.18-1.31L518.73-33.53A4.51,4.51,0,0,0,517-32.46a4.47,4.47,0,0,0-1.31,3.16V51.55A4.52,4.52,0,0,0,517,54.73l1.75,1.74A4.49,4.49,0,0,1,523.34,57.52Z" transform="translate(-515.67 1014.15)"/><path class="cls-6" d="M523.34,237.52,619,333.16V244.85a4.43,4.43,0,0,1-3.18-1.31l-97.07-97.07a4.44,4.44,0,0,0-3.06,4.23v80.85a4.52,4.52,0,0,0,1.31,3.18l1.75,1.74A4.49,4.49,0,0,1,523.34,237.52Z" transform="translate(-515.67 1014.15)"/><path class="cls-6" d="M615.8,513.54a4.43,4.43,0,0,0,3.18,1.31v-90a4.43,4.43,0,0,1-3.18-1.31l-97.07-97.07a4.44,4.44,0,0,0-3.06,4.23v80.85a4.52,4.52,0,0,0,1.31,3.18Z" transform="translate(-515.67 1014.15)"/><path class="cls-7" d="M523.34-751.48,619-655.84v-88.31a4.43,4.43,0,0,1-3.18-1.31l-97.07-97.07a4.51,4.51,0,0,0-1.75,1.07,4.47,4.47,0,0,0-1.31,3.16v80.85a4.52,4.52,0,0,0,1.31,3.18l1.75,1.74A4.49,4.49,0,0,1,523.34-751.48Z" transform="translate(-515.67 1014.15)"/><path class="cls-7" d="M619-744.15v-1.69l-95.64-95.64a4.49,4.49,0,0,0-4.61-1l97.07,97.07A4.43,4.43,0,0,0,619-744.15Z" transform="translate(-515.67 1014.15)"/><path class="cls-7" d="M619-654.15v-1.69l-95.64-95.64a4.49,4.49,0,0,0-4.61-1l97.07,97.07A4.43,4.43,0,0,0,619-654.15Z" transform="translate(-515.67 1014.15)"/><path class="cls-7" d="M523.34-571.48,619-475.84v-88.31a4.43,4.43,0,0,1-3.18-1.31l-97.07-97.07a4.51,4.51,0,0,0-1.75,1.07,4.47,4.47,0,0,0-1.31,3.16v80.85a4.52,4.52,0,0,0,1.31,3.18l1.75,1.74A4.49,4.49,0,0,1,523.34-571.48Z" transform="translate(-515.67 1014.15)"/><path class="cls-7" d="M619-564.15v-1.69l-95.64-95.64a4.49,4.49,0,0,0-4.61-1l97.07,97.07A4.43,4.43,0,0,0,619-564.15Z" transform="translate(-515.67 1014.15)"/><path class="cls-7" d="M619-474.15v-1.69l-95.64-95.64a4.49,4.49,0,0,0-4.61-1l97.07,97.07A4.43,4.43,0,0,0,619-474.15Z" transform="translate(-515.67 1014.15)"/><path class="cls-7" d="M523.34-392.48,619-296.84v-87.31a4.43,4.43,0,0,1-3.18-1.31l-97.07-97.07a4.51,4.51,0,0,0-1.75,1.07,4.47,4.47,0,0,0-1.31,3.16v80.85a4.52,4.52,0,0,0,1.31,3.18l1,1A4.5,4.5,0,0,1,523.34-392.48Z" transform="translate(-515.67 1014.15)"/><path class="cls-7" d="M619-384.15v-1.69l-95.64-95.64a4.49,4.49,0,0,0-4.61-1l97.07,97.07A4.43,4.43,0,0,0,619-384.15Z" transform="translate(-515.67 1014.15)"/><path class="cls-7" d="M619-294.15v-2.69l-95.64-95.64a4.5,4.5,0,0,0-5.31-.74l97.77,97.76A4.43,4.43,0,0,0,619-294.15Z" transform="translate(-515.67 1014.15)"/><path class="cls-7" d="M523.34-212.48,619-116.84v-88.31a4.43,4.43,0,0,1-3.18-1.31l-97.07-97.07a4.51,4.51,0,0,0-1.75,1.07,4.47,4.47,0,0,0-1.31,3.16v80.85a4.52,4.52,0,0,0,1.31,3.18l1.75,1.74A4.49,4.49,0,0,1,523.34-212.48Z" transform="translate(-515.67 1014.15)"/><path class="cls-7" d="M619-205.15v-1.69l-95.64-95.64a4.49,4.49,0,0,0-4.61-1l97.07,97.07A4.43,4.43,0,0,0,619-205.15Z" transform="translate(-515.67 1014.15)"/><path class="cls-7" d="M619-115.15v-1.69l-95.64-95.64a4.49,4.49,0,0,0-4.61-1.05l97.07,97.07A4.43,4.43,0,0,0,619-115.15Z" transform="translate(-515.67 1014.15)"/><path class="cls-7" d="M523.34-32.48,619,63.16V-25.15a4.43,4.43,0,0,1-3.18-1.31l-97.07-97.07a4.51,4.51,0,0,0-1.75,1.07,4.47,4.47,0,0,0-1.31,3.16v80.85A4.52,4.52,0,0,0,517-35.27l1.75,1.74A4.49,4.49,0,0,1,523.34-32.48Z" transform="translate(-515.67 1014.15)"/><path class="cls-7" d="M619-25.15v-1.69l-95.64-95.64a4.49,4.49,0,0,0-4.61-1L615.8-26.46A4.43,4.43,0,0,0,619-25.15Z" transform="translate(-515.67 1014.15)"/><path class="cls-7" d="M619,64.85V63.16L523.34-32.48a4.49,4.49,0,0,0-4.61-1.05L615.8,63.54A4.43,4.43,0,0,0,619,64.85Z" transform="translate(-515.67 1014.15)"/><path class="cls-7" d="M523.34,147.52,619,243.16V154.85a4.43,4.43,0,0,1-3.18-1.31L518.73,56.47a4.44,4.44,0,0,0-3.06,4.23v80.85a4.52,4.52,0,0,0,1.31,3.18l1.75,1.74A4.49,4.49,0,0,1,523.34,147.52Z" transform="translate(-515.67 1014.15)"/><path class="cls-7" d="M619,154.85v-1.69L523.34,57.52a4.49,4.49,0,0,0-4.61-1.05l97.07,97.07A4.43,4.43,0,0,0,619,154.85Z" transform="translate(-515.67 1014.15)"/><path class="cls-7" d="M619,244.85v-1.69l-95.64-95.64a4.49,4.49,0,0,0-4.61-1.05l97.07,97.07A4.43,4.43,0,0,0,619,244.85Z" transform="translate(-515.67 1014.15)"/><path class="cls-7" d="M523.34,327.52,619,423.16V334.85a4.43,4.43,0,0,1-3.18-1.31l-97.07-97.07a4.44,4.44,0,0,0-3.06,4.23v80.85a4.52,4.52,0,0,0,1.31,3.18l1.75,1.74A4.49,4.49,0,0,1,523.34,327.52Z" transform="translate(-515.67 1014.15)"/><path class="cls-7" d="M619,334.85v-1.69l-95.64-95.64a4.49,4.49,0,0,0-4.61-1.05l97.07,97.07A4.43,4.43,0,0,0,619,334.85Z" transform="translate(-515.67 1014.15)"/><path class="cls-7" d="M619,424.85v-1.69l-95.64-95.64a4.49,4.49,0,0,0-4.61-1l97.07,97.07A4.43,4.43,0,0,0,619,424.85Z" transform="translate(-515.67 1014.15)"/><path class="cls-6" d="M523.34,601.52,619,697.16V608.85a4.43,4.43,0,0,1-3.18-1.31l-97.07-97.07a4.44,4.44,0,0,0-3.06,4.23v80.85a4.52,4.52,0,0,0,1.31,3.18l1.75,1.74A4.49,4.49,0,0,1,523.34,601.52Z" transform="translate(-515.67 1014.15)"/><path class="cls-6" d="M523.34,781.52,619,877.16V788.85a4.43,4.43,0,0,1-3.18-1.31l-97.07-97.07a4.44,4.44,0,0,0-3.06,4.23v80.85a4.52,4.52,0,0,0,1.31,3.18l1.75,1.74A4.49,4.49,0,0,1,523.34,781.52Z" transform="translate(-515.67 1014.15)"/><path class="cls-6" d="M523.34,961.52,619,1057.16V968.85a4.43,4.43,0,0,1-3.18-1.31l-97.07-97.07a4.44,4.44,0,0,0-3.06,4.23v80.85a4.52,4.52,0,0,0,1.31,3.18l1.75,1.74A4.49,4.49,0,0,1,523.34,961.52Z" transform="translate(-515.67 1014.15)"/><path class="cls-6" d="M523.34,1141.52,619,1237.16v-88.31a4.43,4.43,0,0,1-3.18-1.31l-97.07-97.07a4.44,4.44,0,0,0-3.06,4.23v80.85a4.52,4.52,0,0,0,1.31,3.18l1.75,1.74A4.49,4.49,0,0,1,523.34,1141.52Z" transform="translate(-515.67 1014.15)"/><path class="cls-6" d="M523.34,1320.52,619,1416.16v-87.31a4.43,4.43,0,0,1-3.18-1.31L518,1229.78a4.75,4.75,0,0,0-1,.76,4.47,4.47,0,0,0-1.31,3.16v80.85a4.52,4.52,0,0,0,1.31,3.18l1.75,1.74A4.49,4.49,0,0,1,523.34,1320.52Z" transform="translate(-515.67 1014.15)"/><path class="cls-6" d="M523.34,1500.52,619,1596.16v-88.31a4.43,4.43,0,0,1-3.18-1.31l-97.07-97.07a4.44,4.44,0,0,0-3.06,4.23v80.85a4.52,4.52,0,0,0,1.31,3.18l1.75,1.74A4.49,4.49,0,0,1,523.34,1500.52Z" transform="translate(-515.67 1014.15)"/><path class="cls-6" d="M523.34,1680.52,619,1776.16v-88.31a4.43,4.43,0,0,1-3.18-1.31l-97.07-97.07a4.44,4.44,0,0,0-3.06,4.23v80.85a4.52,4.52,0,0,0,1.31,3.18l1.75,1.74A4.49,4.49,0,0,1,523.34,1680.52Z" transform="translate(-515.67 1014.15)"/><path class="cls-6" d="M523.34,1860.52,619,1956.16v-88.31a4.43,4.43,0,0,1-3.18-1.31l-97.07-97.07a4.44,4.44,0,0,0-3.06,4.23v80.85a4.52,4.52,0,0,0,1.31,3.18l1.75,1.74A4.49,4.49,0,0,1,523.34,1860.52Z" transform="translate(-515.67 1014.15)"/><path class="cls-6" d="M518.73,1949.47a4.44,4.44,0,0,0-3.06,4.23v44.84H567.8Z" transform="translate(-515.67 1014.15)"/><path class="cls-7" d="M523.34,691.52,619,787.16V698.85a4.43,4.43,0,0,1-3.18-1.31l-97.07-97.07a4.44,4.44,0,0,0-3.06,4.23v80.85a4.52,4.52,0,0,0,1.31,3.18l1.75,1.74A4.49,4.49,0,0,1,523.34,691.52Z" transform="translate(-515.67 1014.15)"/><path class="cls-7" d="M619,698.85v-1.69l-95.64-95.64a4.49,4.49,0,0,0-4.61-1l97.07,97.07A4.43,4.43,0,0,0,619,698.85Z" transform="translate(-515.67 1014.15)"/><path class="cls-7" d="M619,788.85v-1.69l-95.64-95.64a4.49,4.49,0,0,0-4.61-1l97.07,97.07A4.43,4.43,0,0,0,619,788.85Z" transform="translate(-515.67 1014.15)"/><path class="cls-7" d="M523.34,871.52,619,967.16V878.85a4.43,4.43,0,0,1-3.18-1.31l-97.07-97.07a4.44,4.44,0,0,0-3.06,4.23v80.85a4.52,4.52,0,0,0,1.31,3.18l1.75,1.74A4.49,4.49,0,0,1,523.34,871.52Z" transform="translate(-515.67 1014.15)"/><path class="cls-7" d="M619,878.85v-1.69l-95.64-95.64a4.49,4.49,0,0,0-4.61-1l97.07,97.07A4.43,4.43,0,0,0,619,878.85Z" transform="translate(-515.67 1014.15)"/><path class="cls-7" d="M619,968.85v-1.69l-95.64-95.64a4.49,4.49,0,0,0-4.61-1l97.07,97.07A4.43,4.43,0,0,0,619,968.85Z" transform="translate(-515.67 1014.15)"/><path class="cls-7" d="M523.34,1051.52,619,1147.16v-88.31a4.43,4.43,0,0,1-3.18-1.31l-97.07-97.07a4.44,4.44,0,0,0-3.06,4.23v80.85a4.52,4.52,0,0,0,1.31,3.18l1.75,1.74A4.49,4.49,0,0,1,523.34,1051.52Z" transform="translate(-515.67 1014.15)"/><path class="cls-7" d="M619,1058.85v-1.69l-95.64-95.64a4.49,4.49,0,0,0-4.61-1l97.07,97.07A4.43,4.43,0,0,0,619,1058.85Z" transform="translate(-515.67 1014.15)"/><path class="cls-7" d="M619,1148.85v-1.69l-95.64-95.64a4.49,4.49,0,0,0-4.61-1l97.07,97.07A4.43,4.43,0,0,0,619,1148.85Z" transform="translate(-515.67 1014.15)"/><path class="cls-7" d="M523.34,1230.52,619,1326.16v-87.31a4.43,4.43,0,0,1-3.18-1.31l-97.07-97.07a4.44,4.44,0,0,0-3.06,4.23v80.85a4.52,4.52,0,0,0,1.31,3.18l1,1A4.5,4.5,0,0,1,523.34,1230.52Z" transform="translate(-515.67 1014.15)"/><path class="cls-7" d="M619,1238.85v-1.69l-95.64-95.64a4.49,4.49,0,0,0-4.61-1l97.07,97.07A4.43,4.43,0,0,0,619,1238.85Z" transform="translate(-515.67 1014.15)"/><path class="cls-7" d="M619,1328.85v-2.69l-95.64-95.64a4.5,4.5,0,0,0-5.31-.74l97.77,97.76A4.43,4.43,0,0,0,619,1328.85Z" transform="translate(-515.67 1014.15)"/><path class="cls-7" d="M523.34,1410.52,619,1506.16v-88.31a4.43,4.43,0,0,1-3.18-1.31l-97.07-97.07a4.44,4.44,0,0,0-3.06,4.23v80.85a4.52,4.52,0,0,0,1.31,3.18l1.75,1.74A4.49,4.49,0,0,1,523.34,1410.52Z" transform="translate(-515.67 1014.15)"/><path class="cls-7" d="M619,1417.85v-1.69l-95.64-95.64a4.49,4.49,0,0,0-4.61-1l97.07,97.07A4.43,4.43,0,0,0,619,1417.85Z" transform="translate(-515.67 1014.15)"/><path class="cls-7" d="M619,1507.85v-1.69l-95.64-95.64a4.49,4.49,0,0,0-4.61-1l97.07,97.07A4.43,4.43,0,0,0,619,1507.85Z" transform="translate(-515.67 1014.15)"/><path class="cls-7" d="M523.34,1590.52,619,1686.16v-88.31a4.43,4.43,0,0,1-3.18-1.31l-97.07-97.07a4.44,4.44,0,0,0-3.06,4.23v80.85a4.52,4.52,0,0,0,1.31,3.18l1.75,1.74A4.49,4.49,0,0,1,523.34,1590.52Z" transform="translate(-515.67 1014.15)"/><path class="cls-7" d="M619,1597.85v-1.69l-95.64-95.64a4.49,4.49,0,0,0-4.61-1l97.07,97.07A4.43,4.43,0,0,0,619,1597.85Z" transform="translate(-515.67 1014.15)"/><path class="cls-7" d="M619,1687.85v-1.69l-95.64-95.64a4.49,4.49,0,0,0-4.61-1l97.07,97.07A4.43,4.43,0,0,0,619,1687.85Z" transform="translate(-515.67 1014.15)"/><path class="cls-7" d="M523.34,1770.52,619,1866.16v-88.31a4.43,4.43,0,0,1-3.18-1.31l-97.07-97.07a4.44,4.44,0,0,0-3.06,4.23v80.85a4.52,4.52,0,0,0,1.31,3.18l1.75,1.74A4.49,4.49,0,0,1,523.34,1770.52Z" transform="translate(-515.67 1014.15)"/><path class="cls-7" d="M619,1777.85v-1.69l-95.64-95.64a4.49,4.49,0,0,0-4.61-1l97.07,97.07A4.43,4.43,0,0,0,619,1777.85Z" transform="translate(-515.67 1014.15)"/><path class="cls-7" d="M619,1867.85v-1.69l-95.64-95.64a4.49,4.49,0,0,0-4.61-1l97.07,97.07A4.43,4.43,0,0,0,619,1867.85Z" transform="translate(-515.67 1014.15)"/><path class="cls-7" d="M523.34,1950.52l48,48H619v-40.69a4.43,4.43,0,0,1-3.18-1.31l-97.07-97.07a4.44,4.44,0,0,0-3.06,4.23v80.85a4.52,4.52,0,0,0,1.31,3.18l1.75,1.74A4.49,4.49,0,0,1,523.34,1950.52Z" transform="translate(-515.67 1014.15)"/><path class="cls-7" d="M619,1957.85v-1.69l-95.64-95.64a4.49,4.49,0,0,0-4.61-1l97.07,97.07A4.43,4.43,0,0,0,619,1957.85Z" transform="translate(-515.67 1014.15)"/><path class="cls-7" d="M571.36,1998.54l-48-48a4.49,4.49,0,0,0-4.61-1l49.07,49.07Z" transform="translate(-515.67 1014.15)"/><path class="cls-7" d="M523.34,511.52,619,607.16v-90l-95.64-95.64a4.5,4.5,0,0,0-7.67,3.18v80.85a4.52,4.52,0,0,0,1.31,3.18l1.75,1.74A4.49,4.49,0,0,1,523.34,511.52Z" transform="translate(-515.67 1014.15)"/><path class="cls-7" d="M619,608.85v-1.69l-95.64-95.64a4.49,4.49,0,0,0-4.61-1l97.07,97.07A4.43,4.43,0,0,0,619,608.85Z" transform="translate(-515.67 1014.15)"/><polygon class="cls-6" points="103.3 0 15 0 103.3 88.31 103.3 0"/><path class="cls-6" d="M523.34-841.48,619-745.84v-88.31a4.43,4.43,0,0,1-3.18-1.31l-97.07-97.07a4.51,4.51,0,0,0-1.75,1.07,4.47,4.47,0,0,0-1.31,3.16v80.85a4.52,4.52,0,0,0,1.31,3.18l1.75,1.74A4.49,4.49,0,0,1,523.34-841.48Z" transform="translate(-515.67 1014.15)"/><path class="cls-7" d="M523.34-931.48,619-835.84v-88.31a4.43,4.43,0,0,1-3.18-1.31l-88.69-88.69H515.67v76.7a4.52,4.52,0,0,0,1.31,3.18l1.75,1.74A4.49,4.49,0,0,1,523.34-931.48Z" transform="translate(-515.67 1014.15)"/><path class="cls-7" d="M619-924.15v-1.69l-88.31-88.31h-3.56l88.69,88.69A4.43,4.43,0,0,0,619-924.15Z" transform="translate(-515.67 1014.15)"/><path class="cls-7" d="M619-834.15v-1.69l-95.64-95.64a4.49,4.49,0,0,0-4.61-1l97.07,97.07A4.43,4.43,0,0,0,619-834.15Z" transform="translate(-515.67 1014.15)"/></svg>