<?xml version="1.0" encoding="utf-8"?>
<!-- Generator: Adobe Illustrator 24.2.3, SVG Export Plug-In . SVG Version: 6.00 Build 0)  -->
<svg version="1.1" id="Layer_1" xmlns="http://www.w3.org/2000/svg" xmlns:xlink="http://www.w3.org/1999/xlink" x="0px" y="0px"
	 viewBox="0 0 2500 709" style="enable-background:new 0 0 2500 709;" xml:space="preserve">
<style type="text/css">
	.st0{fill:#FFFFFF;}
</style>
<g>
	<path class="st0" d="M129,2.5C77.9,23.9,21.6,84.4,3.9,160.3C-18.6,256.5,75,297.2,82.6,283.9c9-15.7-16.8-21-22.1-70.9
		c-6.9-64.5,23.1-136.5,60.8-168.1c7-5.9,6.7,2.3,6.7,17.4c0,27-1.5,269.7-1.5,320.4c0,68.5-2.8,90.2-7.9,111.6
		c-5.2,21.7-13.4,36.3-7.2,42c7,6.3,36.9-8.7,54.3-32.9c20.8-29,28.1-63.9,29.4-101.7c1.6-45.6,1.5-118,1.6-159.3
		c0.1-37.9,0.6-148.7-0.7-215.4C195.7,10.7,150.4-6.5,129,2.5z M2488.4,362.5c-7.4,0-10.8,7.6-13.6,20.5
		c-9.7,44.8-19.9,54.9-33.1,54.9c-14.7,0-27.9-22.2-31.3-66.5c-2.7-34.9-2.2-99.1,1.2-163c0.7-13.1-2.9-26.1-38.1-38.9
		c-15.2-5.5-37.2-13.6-48.1,12.9c-31,74.8-43.1,134.2-46,158.3c-0.1,1.2-1.7,1.5-1.9-1.4c-1.8-19.3-5.9-54.4-6.4-128.2
		c-0.1-14.4-3.1-26.6-19-36.7c-10.3-6.5-41.6-18-52.9-4.3c-9.8,11.2-21.1,41.3-32.8,77.1c-9.5,29-16.2,48.7-16.2,48.7
		s0.1-78.3,0.2-108.1c0.1-11.2-7.6-15-10-15.6c-10.4-3-31-8.1-39.7-8.1c-10.8,0-13.4,6-13.4,14.8c0,1.1-1.7,103.1-1.7,174.5
		c0,3.1,0,6.5,0,10.1c-6,32.8-25.3,77.3-46.3,77.3c-21,0-31-18.6-31-103.6c0-49.6,1.5-71.2,2.2-107c0.4-20.7,1.2-36.5,1.2-40.1
		c-0.2-11-19.3-16.6-28.1-18.7c-8.9-2.1-16.7-2.9-22.7-2.5c-8.6,0.5-14.6,6.1-14.6,13.8c0,4.1,0,12,0,12
		c-11-17.4-28.8-29.4-40.6-32.9c-31.8-9.4-65-1.1-90.1,34c-19.9,27.9-31.9,59.4-36.6,104.7c-3.5,33.1-2.3,66.7,3.8,95.2
		c-7.4,32.1-21.2,45.2-36.3,45.2c-21.9,0-37.8-35.7-35.9-97.5c1.2-40.6,9.3-69.2,18.2-110.4c3.8-17.6,0.7-26.8-7-35.6
		c-7.1-8.1-22.2-12.2-43.9-7.1c-15.5,3.6-37.6,7.5-57.8,10.5c0,0,1.2-4.9,2.2-13.4c5.3-45-43.6-41.4-59.2-27
		c-9.3,8.6-15.7,18.7-18.1,36.9c-3.8,28.9,19.7,42.5,19.7,42.5c-7.7,35.4-26.7,81.6-46.2,115c-10.5,17.9-18.5,31.2-28.8,45.3
		c0-5.2-0.1-10.5-0.1-15.7c-0.2-74.4,0.8-132.9,1.2-154c0.4-20.7,1.3-36.1,1.2-39.7c-0.1-8.1-4.8-11.1-14.6-15
		c-8.7-3.4-18.9-5.8-29.6-6.6c-13.4-1-21.5,6.1-21.3,14.5c0,1.6,0,11.4,0,11.4c-11-17.4-28.8-29.4-40.6-32.9
		c-31.8-9.4-65-1.1-90.1,34c-19.9,27.9-32.9,66.9-36.6,104.4c-3.4,34.9-2.8,64.5,1.9,89.5c-5.1,25-19.6,51.2-36.1,51.2
		c-21,0-33-18.6-33-103.6c0-49.6,1.5-71.2,2.2-107c0.4-20.7,1.2-36.5,1.2-40.1c-0.2-11-19.3-16.6-28.1-18.7
		c-9.3-2.2-17.3-2.9-23.5-2.5c-8.1,0.6-13.8,7.9-13.8,13.3v12.5c-11-17.4-28.8-29.4-40.6-32.9c-31.8-9.4-64.9-0.9-90.1,34
		c-16.5,22.8-29.8,48-36.6,103.9c-2,16.1-2.9,31.3-2.7,45.4c-6.6,40.1-35.5,86.4-59.3,86.4c-13.9,0-27.1-26.9-27.1-84.3
		c0-76.4,4.7-185.2,5.5-195.6c0,0,30-0.5,35.8-0.6c14.9-0.2,28.5,0.2,48.4-0.8c10-0.5,19.6-36.3,9.3-40.8c-4.7-2-37.7-3.8-50.8-4
		c-11-0.2-41.6-2.5-41.6-2.5s2.7-72.2,3.4-79.8c0.5-6.4-7.7-9.6-12.4-11.6c-11.5-4.8-21.7-7.2-33.9-9.7
		c-16.8-3.5-24.4-0.1-25.9,14.1c-2.2,21.5-3.4,84.6-3.4,84.6c-12.3,0-54.4-2.4-66.8-2.4c-11.5,0-23.8,49.3-8,49.9
		c18.2,0.7,50,1.3,71.1,2c0,0-0.9,110.6-0.9,144.7c0,3.6,0,7.1,0,10.5c-11.6,60.4-52.4,93-52.4,93c8.8-40-9.1-70-41.4-95.4
		c-11.9-9.4-35.3-27.1-61.6-46.5c0,0,15.2-15,28.7-45.1c9.6-21.4,10-45.8-13.5-51.2c-38.7-8.9-70.7,19.5-80.2,49.9
		c-7.4,23.5-3.4,41,11,59.1c1.1,1.3,2.2,2.7,3.4,4c-8.7,16.9-20.8,39.6-30.9,57.2c-28.2,48.9-49.6,87.5-65.7,87.5
		c-12.9,0-12.7-39.2-12.7-76c0-31.7,2.3-79.3,4.2-128.6c0.6-16.3-7.5-25.6-21.2-34c-8.3-5.1-26-15.2-36.3-15.2
		c-15.4,0-59.7,2.1-101.6,123.2c-5.3,15.3-15.6,43.1-15.6,43.1l0.9-145.7c0-3.4-1.8-6.7-6-9c-7.1-3.8-25.9-11.7-42.7-11.7
		c-8,0-12,3.7-12,11.1l-1.5,227.9c0,17.3,0.5,37.5,2.2,46.4c1.7,8.9,4.5,16,7.9,20.3c3.4,4.3,7.4,7.5,13.9,8.9
		c6.1,1.2,39.3,5.5,41-7.2c2.1-15.2,2.1-31.7,19.6-93.1c27.2-95.6,62.6-142.2,79.2-158.7c2.9-2.9,6.2-3.1,6.1,1.7
		c-0.7,20.9-3.2,73.3-4.9,117.8c-4.5,119,17.1,141.1,48.1,141.1c23.7,0,57-23.5,92.8-83.1c22.3-37.1,43.9-73.5,59.5-99.7
		c10.8,10,23,20.8,35.2,32.4c28.3,26.8,37.5,52.3,31.4,76.5c-4.7,18.5-22.4,37.5-54,19c-9.2-5.4-13.1-9.6-22.4-15.7
		c-5-3.3-12.5-4.2-17.1-0.8c-11.8,8.9-18.6,20.2-22.4,34.3c-3.8,13.6,9.9,20.9,24.1,27.2c12.2,5.4,38.4,10.4,55.1,10.9
		c65.2,2.2,117.3-31.5,153.7-118.2c6.5,74.9,34.2,117.3,82.3,117.3c32.2,0,64.4-41.6,78.5-82.4c4,16.7,10,31.2,17.8,43.4
		c37.1,58.7,108.9,46.1,145.1-3.8c11.2-15.4,12.9-20.9,12.9-20.9c5.3,47.1,43.2,63.5,64.9,63.5c24.3,0,49.4-11.5,67-51.1
		c2,4.2,4.3,8.3,6.8,12.3c37.1,58.7,108.9,46.1,145.1-3.8c1.7-2.3,3.2-4.5,4.5-6.4l1.1,30.9l-33.2,30.5
		c-55.7,51.1-98.1,89.8-101.2,134.9c-4,57.5,42.7,78.9,78,81.7c37.4,3,69.6-17.7,89.3-46.7c17.4-25.5,28.7-80.4,27.9-134.6
		c-0.3-21.7-0.9-49.3-1.3-78.9c19.6-22.7,41.6-51.4,61.9-85c22.1-36.6,45.8-85.8,58-124.1c0,0,20.6,0.2,42.6-1.3c7-0.5,9,1,7.7,6.1
		c-1.6,6.2-27.8,107.3-3.9,174.6c16.4,46.1,53.3,60.9,75.1,60.9c25.6,0,50.1-19.3,63.2-48c1.6,3.2,3.2,6.3,5,9.2
		c37.1,58.7,108.7,46,145.1-3.8c8.2-11.2,12.9-20.9,12.9-20.9c7.8,48.7,45.7,63.8,67.4,63.8c22.6,0,44.1-9.3,61.5-50.5
		c0.7,18.1,1.9,33,3.7,37.6c1.1,2.9,7.5,6.4,12.2,8.2c20.7,7.7,41.8,4,49.6,2.5c5.4-1.1,9.6-5.4,10.2-16.6
		c1.5-29.4,0.6-78.8,9.5-115.5c15-61.6,28.9-85.5,35.5-97.4c3.7-6.6,7.9-7.7,8-0.7c0.3,14.2,1,55.9,6.8,111.9
		c4.3,41.2,9.9,65.6,14.3,73.3c12.5,22,27.9,23.1,40.4,23.1c8,0,24.7-2.2,23.2-16.2c-0.7-6.8,0.5-49.1,15.3-109.8
		c9.6-39.6,25.7-75.5,31.5-88.6c2.1-4.8,3.1-1,3.1-0.3c-1.2,27.3-4,116.6,7.2,165.4c15.1,66.2,58.7,73.6,73.9,73.6
		c32.4,0,59-24.7,67.9-89.6C2501.1,374.6,2497.9,362.5,2488.4,362.5L2488.4,362.5z M1129.2,322.4c-1.9,34.4-8.6,63.1-19.3,84
		c-19.5,37.8-58,49.7-75-4.8c-12.2-39.4-8.1-93-3-122c7.6-43,26.5-73.5,56-70.6C1118.3,211.9,1133.1,250.9,1129.2,322.4z
		 M1425.8,322.9c-1.7,32.5-10.1,65.1-19.3,83.5c-18.9,38-58.6,49.9-75-4.8c-11.2-37.4-8.5-85.8-3-116.3c7.2-39.6,24.7-76.3,56-76.3
		C1415.1,208.9,1430.1,242.4,1425.8,322.9z M1433.5,544.3c-0.4,59.2-9.7,111.1-29.7,126.2c-28.3,21.4-66.4,5.3-58.5-37.9
		c7-38.2,40-77.3,88.3-125C1433.6,507.7,1433.7,518.5,1433.5,544.3z M1945.5,323.2c-1.6,35.6-9.5,63.5-19.3,83.1
		c-19,38-58.3,49.8-75-4.8c-9.1-29.8-9.5-79.6-3-121.2c6.7-42.4,25.3-74.4,56-71.5C1934.6,211.7,1948.9,250.9,1945.5,323.2z"/>
</g>
</svg>
