<svg id="Layer_1" data-name="Layer 1" xmlns="http://www.w3.org/2000/svg" viewBox="0 0 103.3 278.64"><defs><style>.cls-1{fill:#feb103;}.cls-2{fill:#184757;}</style></defs><path class="cls-1" d="M100.13,503.21,3.05,406.14a4.45,4.45,0,0,0-3,4.23v80.85a4.52,4.52,0,0,0,1.31,3.18l98.82,98.81a4.39,4.39,0,0,0,3.17,1.31v-90A4.39,4.39,0,0,1,100.13,503.21Z" transform="translate(0 -315.89)"/><path class="cls-2" d="M7.67,407.19l95.63,95.64v-90L7.67,317.19A4.5,4.5,0,0,0,0,320.37v80.85a4.52,4.52,0,0,0,1.31,3.18l1.74,1.74A4.5,4.5,0,0,1,7.67,407.19Z" transform="translate(0 -315.89)"/><path class="cls-2" d="M103.3,504.52v-1.69L7.67,407.19a4.5,4.5,0,0,0-4.62-1.05l97.08,97.07A4.39,4.39,0,0,0,103.3,504.52Z" transform="translate(0 -315.89)"/></svg>