<?xml version="1.0" encoding="utf-8"?>
<!-- Generator: Adobe Illustrator 24.2.3, SVG Export Plug-In . SVG Version: 6.00 Build 0)  -->
<svg version="1.1" id="Layer_1" xmlns="http://www.w3.org/2000/svg" xmlns:xlink="http://www.w3.org/1999/xlink" x="0px" y="0px"
	 viewBox="0 0 175 71.7" style="enable-background:new 0 0 175 71.7;" xml:space="preserve">
<style type="text/css">
	.st0{enable-background:new    ;}
	.st1{fill:#184757;}
	.st2{fill:#FEB103;}
</style>
<g id="Group_228">
	<g id="GARAЖ">
		<g class="st0">
			<path class="st1" d="M34.6,36.7c0,9.8-6.9,15.8-15.9,15.8c-10.1,0-17.4-7.5-17.4-16.7c0-9.3,7.4-16.8,16.9-16.8
				c6.2,0,11.4,3,14.1,7.4L26.1,30c-1.3-2.1-4.2-3.8-7.9-3.8c-5.4,0-9.5,4-9.5,9.7c0,5.5,3.9,9.5,10.1,9.5c4.3,0,7.1-1.9,8.2-5h-8.6
				V34h16.1V36.7z"/>
		</g>
		<g class="st0">
			<path class="st1" d="M57.9,46.8h-12l-1.6,5.1h-8.1l10.9-32.2h9.4l10.9,32.2h-8.1L57.9,46.8z M55.7,39.9l-3.8-11.8l-3.8,11.8H55.7
				z"/>
			<path class="st1" d="M82.5,41.3H79v10.6h-7.4V19.7h12.9c6.1,0,11,4.9,11,11c0,4-2.4,7.5-5.9,9.3l6.9,11.8h-7.9L82.5,41.3z
				 M79,34.9h5.5c2,0,3.7-1.8,3.7-4.1c0-2.3-1.7-4.1-3.7-4.1H79V34.9z"/>
			<path class="st1" d="M120.2,46.8h-12l-1.6,5.1h-8.1l10.9-32.2h9.4l10.9,32.2h-8.1L120.2,46.8z M118,39.9l-3.8-11.8l-3.8,11.8H118
				z"/>
		</g>
		<g class="st0">
			<path class="st2" d="M165.1,51.9l-8.9-14.3v14.3h-7.4V37.6l-8.9,14.3h-8.1l10.4-16.4l-9.9-15.8h8.1l8.5,14.2V19.7h7.4v14.2
				l8.5-14.2h8.1l-9.9,15.8l10.4,16.4H165.1z"/>
		</g>
	</g>
	<g id="сайты">
		<g class="st0">
			<path class="st1" d="M0.4,8.4c0-2.1,1.6-3.7,3.7-3.7c1.4,0,2.6,0.7,3.2,1.8L5.5,7.6C5.2,7.1,4.7,6.8,4.1,6.8
				c-0.9,0-1.6,0.7-1.6,1.6S3.2,10,4.1,10c0.6,0,1.1-0.3,1.4-0.8l1.8,1c-0.6,1.1-1.8,1.8-3.2,1.8C2,12.1,0.4,10.5,0.4,8.4z"/>
		</g>
		<g class="st0">
			<path class="st1" d="M15.6,4.9v7h-2.1v-0.7c-0.5,0.5-1.1,0.9-2.1,0.9c-1.8,0-3.3-1.6-3.3-3.7s1.5-3.7,3.3-3.7
				c0.9,0,1.6,0.3,2.1,0.9V4.9H15.6z M13.5,8.4c0-1.1-0.7-1.7-1.7-1.7c-1,0-1.7,0.7-1.7,1.7s0.7,1.7,1.7,1.7
				C12.8,10.1,13.5,9.4,13.5,8.4z"/>
			<path class="st1" d="M24.1,4.9v7h-2V8.4l-3,3.5h-1.5v-7h2v3.5l3-3.5H24.1z M18.7,2.2h4.2v1.8h-4.2V2.2z"/>
			<path class="st1" d="M31.8,6.9h-2.1v5h-2.1v-5h-2.1v-2h6.3V6.9z"/>
			<path class="st1" d="M39.1,9.4c0,1.5-1.1,2.5-2.7,2.5h-3.3v-7h2.1V7h1.2C38.1,7,39.1,8,39.1,9.4z M37.1,9.4
				c0-0.4-0.3-0.6-0.7-0.6h-1.2v1.3h1.2C36.8,10.1,37.1,9.8,37.1,9.4z M41.9,4.9v7h-2.1v-7H41.9z"/>
		</g>
	</g>
	<g id="приложения">
		<g class="st0">
			<path class="st1" d="M95.4,67.9h-2.1v-5h-2.4v5h-2.1v-7h6.6V67.9z"/>
			<path class="st1" d="M104.8,64.4c0,2.1-1.5,3.7-3.3,3.7c-0.9,0-1.6-0.3-2.1-0.9v3.5h-2.1v-9.8h2.1v0.7c0.5-0.5,1.1-0.9,2.1-0.9
				C103.3,60.7,104.8,62.3,104.8,64.4z M102.7,64.4c0-1.1-0.7-1.7-1.7-1.7s-1.7,0.7-1.7,1.7s0.7,1.7,1.7,1.7S102.7,65.4,102.7,64.4z
				"/>
			<path class="st1" d="M113,60.9v7h-2v-3.5l-3,3.5h-1.5v-7h2v3.5l3-3.5H113z"/>
			<path class="st1" d="M121.1,67.9H119v-5h-1.5V65c0,2.1-1.1,3.1-3.1,2.9v-2c0.7,0.2,1-0.2,1-1.1v-4h5.7V67.9z"/>
		</g>
		<g class="st0">
			<path class="st1" d="M122.7,64.4c0-2.1,1.7-3.7,3.7-3.7c2.1,0,3.7,1.6,3.7,3.7s-1.7,3.7-3.7,3.7
				C124.3,68.1,122.7,66.5,122.7,64.4z M128,64.4c0-1-0.7-1.7-1.6-1.7c-0.9,0-1.6,0.7-1.6,1.7s0.7,1.7,1.6,1.7
				C127.3,66.1,128,65.4,128,64.4z"/>
			<path class="st1" d="M138.2,67.9l-1.9-3v3h-2v-3l-1.9,3H130l2.3-3.5l-2.2-3.5h2.3l1.8,3v-3h2v3l1.8-3h2.3l-2.2,3.5l2.3,3.5H138.2
				z"/>
		</g>
		<g class="st0">
			<path class="st1" d="M145.4,66.2c0.6,0,1.1-0.2,1.3-0.5l1.7,1c-0.7,1-1.7,1.4-3.1,1.4c-2.4,0-3.9-1.6-3.9-3.7s1.5-3.7,3.7-3.7
				c2,0,3.6,1.6,3.6,3.7c0,0.3,0,0.6-0.1,0.8h-5C143.9,66,144.6,66.2,145.4,66.2z M146.6,63.7c-0.2-0.8-0.9-1.1-1.5-1.1
				c-0.8,0-1.3,0.4-1.5,1.1H146.6z"/>
			<path class="st1" d="M156.9,60.9v7h-2.1v-2.5h-2.4v2.5h-2.1v-7h2.1v2.5h2.4v-2.5H156.9z"/>
			<path class="st1" d="M165.5,60.9v7h-2v-3.5l-3,3.5h-1.5v-7h2v3.5l3-3.5H165.5z"/>
			<path class="st1" d="M173.2,67.9h-2v-2h-0.4l-1.4,2h-2.4l1.6-2.3c-0.9-0.4-1.4-1.3-1.4-2.2c0-1.2,0.9-2.5,2.6-2.5h3.4V67.9z
				 M169.3,63.5c0,0.4,0.3,0.7,0.7,0.7h1.2v-1.4H170C169.5,62.7,169.3,63,169.3,63.5z"/>
		</g>
	</g>
</g>
</svg>
